<svg width="16" height="16" viewBox="0 0 16 16" xmlns="http://www.w3.org/2000/svg"><path d="M8.00142 1.33398C8.19447 1.33398 8.37804 1.41767 8.50466 1.5634L9.8491 3.11075L11.8736 2.78959C12.0643 2.75935 12.2587 2.81324 12.4066 2.93733C12.5545 3.06142 12.6413 3.24353 12.6446 3.43655L12.6799 5.48607L14.4372 6.54139C14.6027 6.64078 14.717 6.80703 14.7505 6.99715C14.784 7.18727 14.7335 7.38259 14.612 7.53259L13.3216 9.12529L13.9894 11.0633C14.0523 11.2458 14.033 11.4466 13.9365 11.6138C13.84 11.781 13.6757 11.8981 13.4862 11.9349L11.4739 12.3256L10.7398 14.2394C10.6706 14.4197 10.5268 14.5611 10.3454 14.6271C10.1639 14.6931 9.96282 14.6773 9.794 14.5837L8.00142 13.5894L6.20884 14.5837C6.04002 14.6773 5.83889 14.6931 5.65748 14.6271C5.47607 14.5611 5.33219 14.4197 5.26305 14.2394L4.52892 12.3256L2.51666 11.9349C2.32715 11.8981 2.16289 11.781 2.06636 11.6138C1.96983 11.4466 1.95052 11.2458 2.01342 11.0633L2.68124 9.12529L1.39086 7.53259C1.26933 7.38259 1.2188 7.18727 1.25232 6.99715C1.28584 6.80703 1.40014 6.64078 1.56564 6.54139L3.32293 5.48607L3.35821 3.43655C3.36154 3.24353 3.44837 3.06142 3.59626 2.93733C3.74414 2.81324 3.93856 2.75935 4.12923 2.78959L6.15374 3.11075L7.49817 1.5634C7.62479 1.41767 7.80837 1.33398 8.00142 1.33398ZM10.1395 7.47206C10.3998 7.21171 10.3998 6.7896 10.1395 6.52925C9.87915 6.2689 9.45704 6.2689 9.19669 6.52925L7.33476 8.39118L6.80616 7.86258C6.54581 7.60223 6.1237 7.60223 5.86335 7.86258C5.603 8.12293 5.603 8.54504 5.86335 8.80539L6.86336 9.80539C6.98838 9.93042 7.15795 10.0007 7.33476 10.0007C7.51157 10.0007 7.68114 9.93042 7.80616 9.80539L10.1395 7.47206Z" fill-rule="evenodd" clip-rule="evenodd" fill="currentColor"></path></svg>