<svg width="16" height="16" viewBox="0 0 16 16" xmlns="http://www.w3.org/2000/svg"><path d="M5.33594 15.3327C4.23137 15.3327 3.33594 14.4373 3.33594 13.3327V2.66602C3.33594 1.56145 4.23137 0.666016 5.33594 0.666016H10.6693C11.7738 0.666016 12.6693 1.56145 12.6693 2.66602V13.3327C12.6693 14.4373 11.7738 15.3327 10.6693 15.3327H5.33594ZM7.33594 2.66602C6.96775 2.66602 6.66927 2.96449 6.66927 3.33268C6.66927 3.70087 6.96775 3.99935 7.33594 3.99935H8.66927C9.03746 3.99935 9.33594 3.70087 9.33594 3.33268C9.33594 2.96449 9.03746 2.66602 8.66927 2.66602H7.33594Z" fill-rule="evenodd" clip-rule="evenodd" fill-opacity="0.82" fill="currentColor"></path></svg>