<svg width="16" height="16" viewBox="0 0 16 16" xmlns="http://www.w3.org/2000/svg"><path d="M7.99751 8.00079V14.0008M7.99751 8.00079L13.3307 5.0008M7.99751 8.00079L2.66406 5.0008M7.34371 2.3685L3.34371 4.6185C2.92388 4.85466 2.66406 5.2989 2.66406 5.7806V10.221C2.66406 10.7027 2.92388 11.1469 3.34371 11.3831L7.34371 13.6331C7.7496 13.8614 8.24519 13.8614 8.65108 13.6331L12.6511 11.3831C13.0709 11.1469 13.3307 10.7027 13.3307 10.221V5.7806C13.3307 5.2989 13.0709 4.85466 12.6511 4.6185L8.65108 2.3685C8.24519 2.14019 7.7496 2.14019 7.34371 2.3685Z" stroke="currentColor" fill="none" stroke-width="1.33333" stroke-linejoin="round"></path></svg>